# xmcd
#
# Track frame offsets: 
#        150
#        16924
#        30633
#        45073
#        54773
#        69453
#        86697
#
# Disc length: 1306 seconds
#
# Revision: 0
# Processed by: cddbd v1.5.2PL0 Copyright (c) Steve Scherf et al.
# Submitted via: ExactAudioCopyFreeDBPlugin 1.0
#
DISCID=44051807
DTITLE=Runaway Brides - 6 Girls 6 Songs 6 Bucks
DYEAR=1900
DGENRE=Country
TTITLE0=One More Night
TTITLE1=Cheating Woman
TTITLE2=Red Eye to Jersey
TTITLE3=Hello Mom, I'm in Jail
TTITLE4=Hell's Gonna Have Some Company Tonight
TTITLE5=Runaway Bride
TTITLE6=You Only Like Me When You're Drunk
EXTD=
EXTT0=
EXTT1=
EXTT2=
EXTT3=
EXTT4=
EXTT5=
EXTT6=
PLAYORDER=
